/* XPM */
static char *_19306006f614b76d4bf5dfcce8746c6y7FwbO3yY2YBagRP[] = {
/* columns rows colors chars-per-pixel */
"100 100 13 1 ",
"  c #1FB14D",
". c #1FB24D",
"X c #22B14B",
"o c #22B14C",
"O c #24B24D",
"+ c #27B250",
"@ c #29B051",
"# c #2FB256",
"$ c #35B359",
"% c #74B289",
"& c #81B391",
"* c #8FB39B",
"= c #B4B4B4",
/* pixels */
"oooooooooooooooooooooooooooooooooooooooooooooooooooooooooooooooooooooooooooooooooooooooooooXOooooooo",
"oooooooooooooooooooooooooooooooooooooooooooooooooooooooooooooooooooooooooooooooooooooooooooooooooooo",
"oooooooooooooooooooooooooooooooooooooooooooooooooooooooooooooooooooooooooooooooooooooooooooooooooooo",
"oooooooooooooooooooooooooooooooooooooXXooooooooooooooooooooooooooooooooooooooooooooooooooooooooooooo",
"oooooooooooXXXoooooooooooooooooooooo#ooooooooooooooooooooooooooooooooooooooooooooooooooXXXoooooXXooo",
"XoooooooooooooooooooooooooooooooooooooooooooooooooooooooooooooooooooooooooooooooXXXooooooXoooooooooo",
"oooooooooooooooooooooooooooooooooooooooooooooooooooooooooooooooooooXXXXoooXooXXXooooXooooooooooooooo",
"ooooooooooooooooooooo oooooooooooooooooooooooooooooooooooooooooooooooooooooooXooooooooooooXooooooooo",
"XooooooooooooooooooooooooooooooooooooooooooooooooooooooooXXXooooooooooooooooooooXooooo ooooXooXooooo",
"XoooooooooooooooooXooooooXXoXoo oooooooooooooooooXXoooooooooXoXXXooo o oooooo oooo  XoooooooooXooooo",
"ooooooooooooooXXXXooXoXXooooXXoXooo Xoooooo oXooooooooXooooooooooo oX  o  ooo   ooooooooo oooooooooo",
"ooooooooooooooooooooooooooooooooooooXooo oXXooXoooooooooooooooooooooooo   XXXoooooooooXooooooooooXoO",
"oooooooooooooooooooooooooooooooooooooooooXXXooooooooooooooooooooooooooooooooooXXoo  oooo XoooooooXoO",
"ooooooooooooooooooooooooooooooooooooooooXXooooooooooooooooooooooooooooooooooooooooXXoooooXoooooX%=*=",
"oooooooooooooooooooooooooooooooooooooooooooooooooooooooooooooooooooooooooooooooooooooXXXXooooooX%===",
"oooooooooooooooooooooooooooooooooooooooooooooooooooooooooXXXXXoooooooooooooooooooooooooXoooooooX====",
"oooooooooooooooooooooooooooooooooooooooooooooooooXXXXXXOooo#XXoooXXooooooooooooooooooooooooooooO====",
"oooooooooooooooooooooooooooooooooooooooooooooooXoo#OOOOOOOO$==**#OXXooXXXoooooooooooooooooooooo$====",
"XXooooooooooooooooooooooooooooooooooooooooooooOOOOO$================**#OXXooXoooooooooooooooo+oO====",
"#XoooXooooooooooooooooooooooooooooooooooooo@ooXOO$========================*#XoooXoooooooooooo#XO====",
"==**#XXoooooooooooooooooooooooooooooooooOO+oXO$==============================*&OXooXXoooooo+oXXO====",
"=======#oooooooooooooooooooooooooooXXoO+OOO$=====================================*@OXoooXooooX$=====",
"=========**OXoooooooooooooooooooXoO#+ooOO$==========================================$#@#XXoOO$======",
"=============*#XooooooooooooXXoo+ooOO$================================================*=$$==========",
"================*#XXXoooXXXo+OoOOO$=================================================================",
"===================$OOOOOooOOO$=====================================================================",
"=====================**$O$==========================================================================",
"====================================================================================================",
"====================================================================================================",
"====================================================================================================",
"====================================================================================================",
"====================================================================================================",
"====================================================================================================",
"====================================================================================================",
"====================================================================================================",
"====================================================================================================",
"====================================================================================================",
"====================================================================================================",
"====================================================================================================",
"====================================================================================================",
"====================================================================================================",
"====================================================================================================",
"====================================================================================================",
"====================================================================================================",
"====================================================================================================",
"====================================================================================================",
"====================================================================================================",
"====================================================================================================",
"====================================================================================================",
"====================================================================================================",
"====================================================================================================",
"====================================================================================================",
"====================================================================================================",
"====================================================================================================",
"====================================================================================================",
"====================================================================================================",
"====================================================================================================",
"====================================================================================================",
"====================================================================================================",
"====================================================================================================",
"====================================================================================================",
"====================================================================================================",
"====================================================================================================",
"====================================================================================================",
"====================================================================================================",
"====================================================================================================",
"====================================================================================================",
"====================================================================================================",
"====================================================================================================",
"====================================================================================================",
"====================================================================================================",
"====================================================================================================",
"====================================================================================================",
"====================================================================================================",
"====================================================================================================",
"====================================================================================================",
"====================================================================================================",
"====================================================================================================",
"====================================================================================================",
"====================================================================================================",
"====================================================================================================",
"====================================================================================================",
"====================================================================================================",
"====================================================================================================",
"====================================================================================================",
"====================================================================================================",
"====================================================================================================",
"====================================================================================================",
"====================================================================================================",
"====================================================================================================",
"====================================================================================================",
"====================================================================================================",
"====================================================================================================",
"====================================================================================================",
"====================================================================================================",
"====================================================================================================",
"====================================================================================================",
"====================================================================================================",
"====================================================================================================",
"===================================================================================================="
};
