/* XPM */
static char *d85c4612e0ce4f9698e04dc443efae68RbE726yUxso7WzK3[] = {
/* columns rows colors chars-per-pixel */
"100 100 3 1 ",
"  c #22B14C",
". c #2F3699",
"X c #B4B4B4",
/* pixels */
"XXXXXXXXXXXXXXXXXXXXXXXXXXXXXXXXXXXXXXXXXXXXXXXXXXXXXXXXXXXXXXXXXXXXXXXXXXXXXXXXXXXXXXXXXXXXXXXXXXXX",
"XXXXXXXXXXXXXXXXXXXXXXXXXXXXXXXXXXXXXXXXXXXXXXXXXXXXXXXXXXXXXXXXXXXXXXXXXXXXXXXXXXXXXXXXXXXXXXXXXXXX",
"XXXXXXXXXXXXXXXXXXXXXXXXXXXXXXXXXXXXXXXXXXXXXXXXXXXXXXXXXXXXXXXXXXXXXXXXXXXXXXXXXXXXXXXXXXXXXXXXXXXX",
"XXXXXXXXXXXXXXXXXXXXXXXXXXXXXXXXXXXXXXXXXXXXXXXXXXXXXXXXXXXXXXXXXXXXXXXXXXXXXXXXXXXXXXXXXXXXXXXXXXXX",
"XXXXXXXXXXXXXXXXXXXXXXXXXXXXXXXXXXXXXXXXXXXXXXXXXXXXXXXXXXXXXXXXXXXXXXXXXXXXXXXXXXXXXXXXXXXXXXXXXXXX",
"XXXXXXXXXXXXXXXXXXXXXXXXXXXXXXXXXXXXXXXXXXXXXXXXXXXXXXXXXXXXXXXXXXXXXXXXXXXXXXXXXXXXXXXXXXXXXXXXXXXX",
"XXXXXXXXXXXXXXXXXXXXXXXXXXXXXXXXXXXXXXXXXXXXXXXXXXXXXXXXXXXXXXXXXXXXXXXXXXXXXXXXXXXXXXXXXXXXXXXXXXXX",
"XXXXXXXXXXXXXXXXXXXXXXXXXXXXXXXXXXXXXXXXXXXXXXXXXXXXXXXXXXXXXXXXXXXXXXXXXXXXXXXXXXXXXXXXXXXXXXXXXXXX",
"XXXXXXXXXXXXXXXXXXXXXXXXXXXXXXXXXXXXXXXXXXXXXXXXXXXXXXXXXXXXXXXXXXXXXXXXXXXXXXXXXXXXXXXXXXXXXXXXXXXX",
"XXXXXXXXXXXXXXXXXXXXXXXXXXXXXXXXXXXXXXXXXXXXXXXXXXXXXXXXXXXXXXXXXXXXXXXXXXXXXXXXXXXXXXXXXXXXXXXXXXXX",
"XXXXXXXXXXXXXXXXXXXXXXXXXXXXXXXXXXXXXXXXXXXXXXXXXXXXXXXXXXXXXXXXXXXXXXXXXXXXXXXXXXXXXXXXXXXXXXXXXXXX",
"XXXXXXXXXXXXXXXXXXXXXXXXXXXXXXXXXXXXXXXXXXXXXXXXXXXXXXXXXXXXXXXXXXXXXXXXXXXXXXXXXXXXXXXXXXXXXXXXXXXX",
"XXXXXXXXXXXXXXXXXXXXXXXXXXXXXXXXXXXXXXXXXXXXX            XXXXXXXXXXXXXXXXXXXXXXXXXXXXXXXXXXXXXXXXXXX",
"XXXXXXXXXXXXXXXXXXXXXXXXXXXXXXXXXXXXXXXX                      XXXXXXXXXXXXXXXXXXXXXXXXXXXXXXXXXXXXXX",
"XXXXXXXXXXXXXXXXXXXXXXXXXXXXXXXXXXXXX         ..........         XXXXXXXXXXXXXXXXXXXXXXXXXXXXXXXXXXX",
"XXXXXXXXXXXXXXXXXXXXXXXXXXXXXXXXXXX      ....................      XXXXXXXXXXXXXXXXXXXXXXXXXXXXXXXXX",
"XXXXXXXXXXXXXXXXXXXXXXXXXXXXXXXXX     ..........................     XXXXXXXXXXXXXXXXXXXXXXXXXXXXXXX",
"XXXXXXXXXXXXXXXXXXXXXXXXXXXXXXXX    ..............................    XXXXXXXXXXXXXXXXXXXXXXXXXXXXXX",
"XXXXXXXXXXXXXXXXXXXXXXXXXXXXXX    ..................................    XXXXXXXXXXXXXXXXXXXXXXXXXXXX",
"XXXXXXXXXXXXXXXXXXXXXXXXXXXXX    ....................................    XXXXXXXXXXXXXXXXXXXXXXXXXXX",
"XXXXXXXXXXXXXXXXXXXXXXXXXXXX   ........................................   XXXXXXXXXXXXXXXXXXXXXXXXXX",
"XXXXXXXXXXXXXXXXXXXXXXXXXX    ..........................................    XXXXXXXXXXXXXXXXXXXXXXXX",
"XXXXXXXXXXXXXXXXXXXXXXXXX    ............................................    XXXXXXXXXXXXXXXXXXXXXXX",
"XXXXXXXXXXXXXXXXXXXXXXXX   ................................................   XXXXXXXXXXXXXXXXXXXXXX",
"XXXXXXXXXXXXXXXXXXXXXXX   ..................................................   XXXXXXXXXXXXXXXXXXXXX",
"XXXXXXXXXXXXXXXXXXXXXXX  ....................................................  XXXXXXXXXXXXXXXXXXXXX",
"XXXXXXXXXXXXXXXXXXXXXX   ....................................................   XXXXXXXXXXXXXXXXXXXX",
"XXXXXXXXXXXXXXXXXXXXX   ......................................................   XXXXXXXXXXXXXXXXXXX",
"XXXXXXXXXXXXXXXXXXXX   ........................................................   XXXXXXXXXXXXXXXXXX",
"XXXXXXXXXXXXXXXXXXXX  ..........................................................  XXXXXXXXXXXXXXXXXX",
"XXXXXXXXXXXXXXXXXXX   ..........................................................   XXXXXXXXXXXXXXXXX",
"XXXXXXXXXXXXXXXXXXX  ............................................................  XXXXXXXXXXXXXXXXX",
"XXXXXXXXXXXXXXXXXX   ............................................................   XXXXXXXXXXXXXXXX",
"XXXXXXXXXXXXXXXXXX  ..............................................................  XXXXXXXXXXXXXXXX",
"XXXXXXXXXXXXXXXXX   ..............................................................   XXXXXXXXXXXXXXX",
"XXXXXXXXXXXXXXXXX  ................................................................  XXXXXXXXXXXXXXX",
"XXXXXXXXXXXXXXXX   ................................................................   XXXXXXXXXXXXXX",
"XXXXXXXXXXXXXXXX  ..................................................................  XXXXXXXXXXXXXX",
"XXXXXXXXXXXXXXXX  ..................................................................  XXXXXXXXXXXXXX",
"XXXXXXXXXXXXXXX   ..................................................................   XXXXXXXXXXXXX",
"XXXXXXXXXXXXXXX  ....................................................................  XXXXXXXXXXXXX",
"XXXXXXXXXXXXXXX  ....................................................................  XXXXXXXXXXXXX",
"XXXXXXXXXXXXXXX  ....................................................................  XXXXXXXXXXXXX",
"XXXXXXXXXXXXXX   ....................................................................   XXXXXXXXXXXX",
"XXXXXXXXXXXXXX  ......................................................................  XXXXXXXXXXXX",
"XXXXXXXXXXXXXX  ......................................................................  XXXXXXXXXXXX",
"XXXXXXXXXXXXXX  ......................................................................  XXXXXXXXXXXX",
"XXXXXXXXXXXXXX  ......................................................................  XXXXXXXXXXXX",
"XXXXXXXXXXXXXX  ......................................................................  XXXXXXXXXXXX",
"XXXXXXXXXXXXXX  ......................................................................  XXXXXXXXXXXX",
"XXXXXXXXXXXXXX  ......................................................................  XXXXXXXXXXXX",
"XXXXXXXXXXXXXX  ......................................................................  XXXXXXXXXXXX",
"XXXXXXXXXXXXXX  ......................................................................  XXXXXXXXXXXX",
"XXXXXXXXXXXXXX  ......................................................................  XXXXXXXXXXXX",
"XXXXXXXXXXXXXX  ......................................................................  XXXXXXXXXXXX",
"XXXXXXXXXXXXXX  ......................................................................  XXXXXXXXXXXX",
"XXXXXXXXXXXXXX   ....................................................................   XXXXXXXXXXXX",
"XXXXXXXXXXXXXXX  ....................................................................  XXXXXXXXXXXXX",
"XXXXXXXXXXXXXXX  ....................................................................  XXXXXXXXXXXXX",
"XXXXXXXXXXXXXXX  ....................................................................  XXXXXXXXXXXXX",
"XXXXXXXXXXXXXXX   ..................................................................   XXXXXXXXXXXXX",
"XXXXXXXXXXXXXXXX  ..................................................................  XXXXXXXXXXXXXX",
"XXXXXXXXXXXXXXXX  ..................................................................  XXXXXXXXXXXXXX",
"XXXXXXXXXXXXXXXX   ................................................................   XXXXXXXXXXXXXX",
"XXXXXXXXXXXXXXXXX  ................................................................  XXXXXXXXXXXXXXX",
"XXXXXXXXXXXXXXXXX   ..............................................................   XXXXXXXXXXXXXXX",
"XXXXXXXXXXXXXXXXXX  ..............................................................  XXXXXXXXXXXXXXXX",
"XXXXXXXXXXXXXXXXXX   ............................................................   XXXXXXXXXXXXXXXX",
"XXXXXXXXXXXXXXXXXXX  ............................................................  XXXXXXXXXXXXXXXXX",
"XXXXXXXXXXXXXXXXXXX   ..........................................................   XXXXXXXXXXXXXXXXX",
"XXXXXXXXXXXXXXXXXXXX  ..........................................................  XXXXXXXXXXXXXXXXXX",
"XXXXXXXXXXXXXXXXXXXX   ........................................................   XXXXXXXXXXXXXXXXXX",
"XXXXXXXXXXXXXXXXXXXXX   ......................................................   XXXXXXXXXXXXXXXXXXX",
"XXXXXXXXXXXXXXXXXXXXXX   ....................................................   XXXXXXXXXXXXXXXXXXXX",
"XXXXXXXXXXXXXXXXXXXXXXX  ....................................................  XXXXXXXXXXXXXXXXXXXXX",
"XXXXXXXXXXXXXXXXXXXXXXX   ..................................................   XXXXXXXXXXXXXXXXXXXXX",
"XXXXXXXXXXXXXXXXXXXXXXXX   ................................................   XXXXXXXXXXXXXXXXXXXXXX",
"XXXXXXXXXXXXXXXXXXXXXXXXX    ............................................    XXXXXXXXXXXXXXXXXXXXXXX",
"XXXXXXXXXXXXXXXXXXXXXXXXXX    ..........................................    XXXXXXXXXXXXXXXXXXXXXXXX",
"XXXXXXXXXXXXXXXXXXXXXXXXXXXX   ........................................   XXXXXXXXXXXXXXXXXXXXXXXXXX",
"XXXXXXXXXXXXXXXXXXXXXXXXXXXXX    ....................................    XXXXXXXXXXXXXXXXXXXXXXXXXXX",
"XXXXXXXXXXXXXXXXXXXXXXXXXXXXXX    ..................................    XXXXXXXXXXXXXXXXXXXXXXXXXXXX",
"XXXXXXXXXXXXXXXXXXXXXXXXXXXXXXXX    ..............................    XXXXXXXXXXXXXXXXXXXXXXXXXXXXXX",
"XXXXXXXXXXXXXXXXXXXXXXXXXXXXXXXXX     ..........................     XXXXXXXXXXXXXXXXXXXXXXXXXXXXXXX",
"XXXXXXXXXXXXXXXXXXXXXXXXXXXXXXXXXXX      ....................      XXXXXXXXXXXXXXXXXXXXXXXXXXXXXXXXX",
"XXXXXXXXXXXXXXXXXXXXXXXXXXXXXXXXXXXXX         ..........         XXXXXXXXXXXXXXXXXXXXXXXXXXXXXXXXXXX",
"XXXXXXXXXXXXXXXXXXXXXXXXXXXXXXXXXXXXXXXX                      XXXXXXXXXXXXXXXXXXXXXXXXXXXXXXXXXXXXXX",
"XXXXXXXXXXXXXXXXXXXXXXXXXXXXXXXXXXXXXXXXXXXXX            XXXXXXXXXXXXXXXXXXXXXXXXXXXXXXXXXXXXXXXXXXX",
"XXXXXXXXXXXXXXXXXXXXXXXXXXXXXXXXXXXXXXXXXXXXXXXXXXXXXXXXXXXXXXXXXXXXXXXXXXXXXXXXXXXXXXXXXXXXXXXXXXXX",
"XXXXXXXXXXXXXXXXXXXXXXXXXXXXXXXXXXXXXXXXXXXXXXXXXXXXXXXXXXXXXXXXXXXXXXXXXXXXXXXXXXXXXXXXXXXXXXXXXXXX",
"XXXXXXXXXXXXXXXXXXXXXXXXXXXXXXXXXXXXXXXXXXXXXXXXXXXXXXXXXXXXXXXXXXXXXXXXXXXXXXXXXXXXXXXXXXXXXXXXXXXX",
"XXXXXXXXXXXXXXXXXXXXXXXXXXXXXXXXXXXXXXXXXXXXXXXXXXXXXXXXXXXXXXXXXXXXXXXXXXXXXXXXXXXXXXXXXXXXXXXXXXXX",
"XXXXXXXXXXXXXXXXXXXXXXXXXXXXXXXXXXXXXXXXXXXXXXXXXXXXXXXXXXXXXXXXXXXXXXXXXXXXXXXXXXXXXXXXXXXXXXXXXXXX",
"XXXXXXXXXXXXXXXXXXXXXXXXXXXXXXXXXXXXXXXXXXXXXXXXXXXXXXXXXXXXXXXXXXXXXXXXXXXXXXXXXXXXXXXXXXXXXXXXXXXX",
"XXXXXXXXXXXXXXXXXXXXXXXXXXXXXXXXXXXXXXXXXXXXXXXXXXXXXXXXXXXXXXXXXXXXXXXXXXXXXXXXXXXXXXXXXXXXXXXXXXXX",
"XXXXXXXXXXXXXXXXXXXXXXXXXXXXXXXXXXXXXXXXXXXXXXXXXXXXXXXXXXXXXXXXXXXXXXXXXXXXXXXXXXXXXXXXXXXXXXXXXXXX",
"XXXXXXXXXXXXXXXXXXXXXXXXXXXXXXXXXXXXXXXXXXXXXXXXXXXXXXXXXXXXXXXXXXXXXXXXXXXXXXXXXXXXXXXXXXXXXXXXXXXX",
"XXXXXXXXXXXXXXXXXXXXXXXXXXXXXXXXXXXXXXXXXXXXXXXXXXXXXXXXXXXXXXXXXXXXXXXXXXXXXXXXXXXXXXXXXXXXXXXXXXXX",
"XXXXXXXXXXXXXXXXXXXXXXXXXXXXXXXXXXXXXXXXXXXXXXXXXXXXXXXXXXXXXXXXXXXXXXXXXXXXXXXXXXXXXXXXXXXXXXXXXXXX",
"XXXXXXXXXXXXXXXXXXXXXXXXXXXXXXXXXXXXXXXXXXXXXXXXXXXXXXXXXXXXXXXXXXXXXXXXXXXXXXXXXXXXXXXXXXXXXXXXXXXX"
};
